<svg width="368" height="368" viewBox="0 0 368 368" fill="none" xmlns="http://www.w3.org/2000/svg">
<path fill-rule="evenodd" clip-rule="evenodd" d="M181.531 13.9022C193.528 23.2083 195.71 40.4782 186.404 52.4756L169.683 74.0324L221.671 114.358C240.039 128.607 183.868 156.874 187.689 178.082C192.077 202.432 254.055 220.132 237.697 241.221L197.371 293.209L218.928 309.93C230.805 319.143 233.062 336.162 224.076 348.142L223.801 348.504C214.495 360.501 197.225 362.683 185.227 353.377C173.35 344.164 171.093 327.145 180.079 315.165L180.354 314.803L197.076 293.247L145.087 252.92C125.548 237.764 180.412 202.101 177.373 179.386C174.275 156.229 113.611 145.976 129.061 126.058L169.387 74.0693L147.83 57.3485C135.833 48.0424 133.651 30.7725 142.957 18.7751C152.263 6.77777 169.533 4.59608 181.531 13.9022Z" stroke="#595a9b"/>
<path fill-rule="evenodd" clip-rule="evenodd" d="M160.275 15.4938C173.344 23.2228 177.673 40.0831 169.944 53.1522L156.057 76.6348L212.689 110.127C232.699 121.961 180.513 157.045 186.962 177.607C194.367 201.215 258.075 211.008 244.489 233.981L210.996 290.613L234.479 304.501C247.418 312.152 251.79 328.754 244.377 341.766L244.148 342.159C236.419 355.228 219.559 359.557 206.49 351.828C193.551 344.176 189.179 327.575 196.592 314.563L196.821 314.17L210.708 290.687L154.076 257.195C132.791 244.607 182.753 202.349 176.891 180.193C170.915 157.608 109.444 155.039 122.276 133.341L155.767 76.7085L132.285 62.8213C119.216 55.0922 114.887 38.2319 122.616 25.1628C130.345 12.0937 147.206 7.7647 160.275 15.4938Z" stroke="#595a9b"/>
<path fill-rule="evenodd" clip-rule="evenodd" d="M139.386 19.7366C153.321 25.7668 159.729 41.9515 153.699 55.8863L142.864 80.9242L203.248 107.054C224.583 116.287 177.206 157.635 186.182 177.227C196.487 199.721 260.92 201.451 250.32 225.946L224.189 286.329L249.228 297.164C263.023 303.134 269.442 319.056 263.718 332.895L263.54 333.314C257.51 347.249 241.325 353.657 227.391 347.627C213.595 341.657 207.177 325.734 212.901 311.896L213.078 311.477L223.913 286.439L163.529 260.309C140.835 250.488 185.106 202.301 176.514 181.055C167.754 159.397 106.445 164.552 116.457 141.417L142.587 81.0336L117.549 70.199C103.615 64.1688 97.2065 47.9841 103.237 34.0493C109.267 20.1145 125.452 13.7065 139.386 19.7366Z" stroke="#595a9b"/>
<path fill-rule="evenodd" clip-rule="evenodd" d="M119.195 26.564C133.776 30.8 142.162 46.054 137.926 60.6347L130.315 86.8331L193.497 105.189C215.821 111.675 174 158.635 185.361 176.948C198.404 197.972 262.546 191.614 255.099 217.244L236.743 280.426L262.942 288.037C277.377 292.231 285.74 307.223 281.795 321.67L281.672 322.108C277.436 336.689 262.182 345.075 247.601 340.839C233.167 336.645 224.803 321.652 228.748 307.205L228.871 306.768L236.482 280.569L173.3 262.213C149.553 255.314 187.436 201.959 176.249 181.957C164.844 161.567 104.665 174.366 111.697 150.159L130.053 86.9765L103.855 79.3653C89.2746 75.1292 80.8886 59.8752 85.1247 45.2945C89.3608 30.7138 104.615 22.3279 119.195 26.564Z" stroke="#595a9b"/>
<path fill-rule="evenodd" clip-rule="evenodd" d="M100.019 35.8682C115.016 38.2435 125.247 52.3261 122.872 67.3228L118.604 94.2685L183.589 104.561C206.55 108.198 170.944 160.029 184.51 176.773C200.086 195.997 262.925 181.65 258.75 208.011L248.457 272.996L275.403 277.264C290.25 279.615 300.426 293.441 298.324 308.268L298.256 308.718C295.881 323.715 281.798 333.946 266.801 331.571C251.955 329.22 241.778 315.394 243.881 300.566L243.948 300.117L248.216 273.171L183.231 262.878C158.807 259.01 189.705 201.327 176.098 182.885C162.228 164.086 104.127 184.326 108.071 159.428L118.363 94.4436L91.4175 90.1758C76.4209 87.8006 66.1893 73.7179 68.5645 58.7213C70.9397 43.7247 85.0224 33.493 100.019 35.8682Z" stroke="#595a9b"/>
<path fill-rule="evenodd" clip-rule="evenodd" d="M82.1599 47.5026C97.3359 47.9795 109.252 60.6688 108.775 75.8449L107.918 103.113L173.68 105.18C196.916 105.91 168.087 161.795 183.645 176.707C201.507 193.827 262.053 171.717 261.214 198.394L259.147 264.156L286.416 265.013C301.44 265.485 313.269 277.927 313.042 292.901L313.031 293.355C312.554 308.531 299.865 320.447 284.689 319.97C269.664 319.498 257.835 307.057 258.063 292.083L258.073 291.628L258.931 264.36L193.168 262.293C168.452 261.517 191.876 200.416 176.065 183.825C159.948 166.912 104.842 194.275 105.634 169.079L107.7 103.317L80.4328 102.46C65.2567 101.983 53.3407 89.2938 53.8176 74.1177C54.2945 58.9417 66.9838 47.0257 82.1599 47.5026Z" stroke="#595a9b"/>
<path fill-rule="evenodd" clip-rule="evenodd" d="M65.9005 61.2836C81.0166 59.8547 94.4291 70.9505 95.858 86.0667L98.4256 113.227L163.928 107.035C187.072 104.848 165.475 163.905 182.779 176.75C202.646 191.496 259.943 161.972 262.455 188.543L268.646 254.046L295.807 251.479C310.772 250.064 324.067 260.925 325.718 275.81L325.764 276.262C327.193 291.378 316.098 304.79 300.981 306.219C286.016 307.634 272.721 296.773 271.07 281.889L271.024 281.436L268.457 254.276L202.954 260.468C178.335 262.795 193.916 199.24 176.151 184.762C158.041 170.002 106.8 204.056 104.427 178.96L98.2351 113.457L71.075 116.024C55.9588 117.453 42.5464 106.357 41.1175 91.2412C39.6886 76.125 50.7843 62.7125 65.9005 61.2836Z" stroke="#595a9b"/>
<path fill-rule="evenodd" clip-rule="evenodd" d="M51.4947 76.9938C66.3126 73.6816 81.01 83.0088 84.3222 97.8267L90.2736 124.451L154.484 110.099C177.171 105.027 163.146 166.326 181.924 176.901C203.482 189.041 256.627 152.568 262.449 178.615L276.801 242.826L303.426 236.874C318.096 233.595 332.647 242.704 336.151 257.264L336.254 257.707C339.566 272.525 330.239 287.223 315.421 290.535C300.751 293.814 286.199 284.705 282.696 270.145L282.593 269.702L276.642 243.077L212.432 257.43C188.299 262.824 195.792 197.818 176.352 185.68C156.535 173.307 109.966 213.514 104.467 188.913L90.1134 124.703L63.4892 130.654C48.6713 133.966 33.974 124.639 30.6618 109.821C27.3496 95.0034 36.6768 80.306 51.4947 76.9938Z" stroke="#595a9b"/>
<path fill-rule="evenodd" clip-rule="evenodd" d="M39.1725 94.3855C53.4585 89.2422 69.2089 96.6538 74.3522 110.94L83.5937 136.608L145.499 114.321C167.371 106.447 161.14 169.02 181.095 177.158C204.005 186.5 252.159 143.654 261.2 168.766L283.487 230.671L309.156 221.43C323.299 216.338 338.877 223.551 344.178 237.558L344.335 237.984C349.479 252.27 342.067 268.021 327.781 273.164C313.638 278.256 298.06 271.042 292.759 257.036L292.601 256.61L283.36 230.941L221.455 253.228C198.188 261.605 197.475 196.172 176.667 186.566C155.456 176.774 114.293 222.501 105.754 198.783L83.4662 136.878L57.7979 146.119C43.512 151.263 27.7615 143.851 22.6183 129.565C17.475 115.279 24.8866 99.5287 39.1725 94.3855Z" stroke="#595a9b"/>
<path fill-rule="evenodd" clip-rule="evenodd" d="M29.1269 113.185C42.6555 106.291 59.2107 111.67 66.1039 125.199L78.4897 149.507L137.113 119.637C157.826 109.083 159.486 171.944 180.304 177.516C204.204 183.914 246.609 135.371 258.726 159.151L288.596 217.775L312.904 205.389C326.297 198.565 342.657 203.769 349.671 217.001L349.881 217.404C356.774 230.933 351.395 247.488 337.867 254.381C324.473 261.205 308.114 256.001 301.099 242.77L300.89 242.366L288.504 218.058L229.88 247.929C207.847 259.155 198.938 194.328 177.091 187.406C154.819 180.349 119.712 230.875 108.268 208.414L78.397 149.791L54.0893 162.176C40.5607 169.069 24.0055 163.69 17.1123 150.162C10.2191 136.633 15.5982 120.078 29.1269 113.185Z" stroke="#595a9b"/>
<path fill-rule="evenodd" clip-rule="evenodd" d="M21.5159 133.094C34.0739 124.56 51.1728 127.822 59.7072 140.38L75.0419 162.944L129.459 125.962C148.687 112.895 158.212 175.052 179.564 177.971C204.077 181.323 240.064 127.848 255.065 149.922L292.047 204.34L314.612 189.005C327.044 180.556 343.927 183.669 352.544 195.917L352.803 196.291C361.337 208.849 358.076 225.948 345.518 234.482C333.085 242.931 316.202 239.819 307.585 227.571L307.326 227.197L291.992 204.632L237.574 241.615C217.122 255.514 200.158 192.315 177.615 188.185C154.635 183.976 126.137 238.503 111.968 217.654L74.9855 163.237L52.4218 178.571C39.8638 187.105 22.765 183.844 14.2305 171.286C5.6961 158.728 8.95788 141.629 21.5159 133.094Z" stroke="#595a9b"/>
<path fill-rule="evenodd" clip-rule="evenodd" d="M16.4626 153.801C27.852 143.76 45.2248 144.853 55.2658 156.242L73.3076 176.706L122.661 133.196C140.099 117.822 157.34 178.295 178.889 178.515C203.629 178.768 232.629 121.204 250.28 141.225L293.79 190.578L314.255 172.536C325.53 162.596 342.67 163.568 352.755 174.639L353.058 174.978C363.099 186.367 362.006 203.74 350.617 213.781C339.341 223.722 322.201 222.75 312.117 211.678L311.814 211.34L293.772 190.875L244.418 234.386C225.869 250.74 201.118 190.164 178.236 188.893C154.909 187.597 133.47 245.266 116.8 226.357L73.2884 177.004L52.8245 195.045C41.4352 205.086 24.0624 203.993 14.0213 192.604C3.98023 181.215 5.07323 163.842 16.4626 153.801Z" stroke="#595a9b"/>
<path fill-rule="evenodd" clip-rule="evenodd" d="M14.0428 174.978C24.0839 163.588 41.4567 162.495 52.8461 172.536L73.3104 190.578L116.821 141.225C132.195 123.787 156.879 181.622 178.286 179.14C202.863 176.29 224.42 115.545 244.44 133.196L293.793 176.707L311.835 156.242C321.776 144.967 338.902 143.783 350.295 153.503L350.638 153.801C362.028 163.842 363.121 181.215 353.08 192.604C343.139 203.88 326.012 205.064 314.62 195.343L314.276 195.045L293.812 177.004L250.301 226.357C233.948 244.906 201.8 187.911 178.939 189.518C155.634 191.155 141.591 251.057 122.682 234.386L73.3287 190.876L55.2874 211.34C45.2463 222.729 27.8735 223.822 16.4841 213.781C5.09478 203.74 4.00178 186.367 14.0428 174.978Z" stroke="#595a9b"/>
<path fill-rule="evenodd" clip-rule="evenodd" d="M14.2971 196.291C22.8315 183.733 39.9303 180.471 52.4884 189.005L75.0526 204.34L112.035 149.922C125.101 130.695 156.84 184.981 177.767 179.835C201.793 173.927 215.566 110.96 237.641 125.962L292.058 162.944L307.393 140.38C315.842 127.947 332.685 124.626 345.206 132.842L345.584 133.094C358.142 141.629 361.404 158.728 352.87 171.286C344.421 183.718 327.577 187.039 315.056 178.824L314.678 178.571L292.114 163.236L255.132 217.654C241.233 238.107 202.195 185.59 179.715 190.049C156.799 194.595 150.375 255.784 129.526 241.615L75.108 204.633L59.7737 227.197C51.2393 239.755 34.1405 243.016 21.5825 234.482C9.02444 225.948 5.76266 208.849 14.2971 196.291Z" stroke="#595a9b"/>
<path fill-rule="evenodd" clip-rule="evenodd" d="M17.2188 217.404C24.112 203.875 40.6672 198.496 54.1958 205.389L78.504 217.775L108.374 159.151C118.928 138.438 157.22 188.318 177.337 180.59C200.433 171.717 206.206 107.52 229.987 119.637L288.61 149.508L300.996 125.199C307.82 111.806 324.114 106.4 337.566 112.981L337.973 113.185C351.502 120.078 356.881 136.633 349.988 150.162C343.163 163.555 326.869 168.961 313.417 162.379L313.011 162.176L288.703 149.79L258.832 208.414C247.606 230.447 202.294 183.237 180.55 190.479C158.384 197.861 159.68 259.373 137.22 247.928L78.5958 218.059L66.2104 242.366C59.3172 255.895 42.762 261.274 29.2334 254.381C15.7047 247.488 10.3256 230.933 17.2188 217.404Z" stroke="#595a9b"/>
<path fill-rule="evenodd" clip-rule="evenodd" d="M22.7655 237.984C27.9088 223.698 43.6592 216.287 57.9452 221.43L83.614 230.671L105.901 168.766C113.776 146.894 158.017 191.581 177.007 181.392C198.809 169.695 196.49 105.281 221.602 114.321L283.507 136.609L292.749 110.94C297.841 96.7968 313.329 89.3912 327.499 94.235L327.928 94.3856C342.214 99.5288 349.626 115.279 344.483 129.565C339.391 143.708 323.903 151.114 309.732 146.27L309.303 146.119L283.634 136.878L261.347 198.783C252.971 222.05 202.099 180.891 181.434 190.801C160.369 200.903 169.364 261.767 145.646 253.228L83.7406 230.941L74.4995 256.61C69.3562 270.896 53.6057 278.307 39.3198 273.164C25.0339 268.021 17.6223 252.27 22.7655 237.984Z" stroke="#595a9b"/>
<path fill-rule="evenodd" clip-rule="evenodd" d="M30.847 257.707C34.1592 242.889 48.8565 233.562 63.6744 236.874L90.299 242.825L104.652 178.615C109.723 155.928 159.216 194.718 176.779 182.23C196.943 167.892 186.57 104.276 212.617 110.099L276.827 124.452L282.778 97.8267C286.057 83.1569 300.495 73.8686 315.161 76.8982L315.606 76.9937C330.424 80.3059 339.751 95.0033 336.439 109.821C333.16 124.491 318.722 133.779 304.056 130.75L303.611 130.654L276.987 124.703L262.634 188.913C257.24 213.046 201.611 178.588 182.351 191.009C162.718 203.672 179.27 262.929 154.669 257.43L90.4585 243.078L84.5073 269.702C81.1951 284.52 66.4978 293.847 51.6799 290.535C36.862 287.222 27.5348 272.525 30.847 257.707Z" stroke="#595a9b"/>
<path fill-rule="evenodd" clip-rule="evenodd" d="M41.3379 276.262C42.7668 261.146 56.1793 250.05 71.2954 251.479L98.456 254.046L104.648 188.543C106.836 165.399 160.8 197.68 176.66 183.089C194.868 166.338 176.603 104.523 203.174 107.035L268.677 113.227L271.244 86.0665C272.659 71.1015 285.819 60.0769 300.749 61.2444L301.202 61.2835C316.318 62.7124 327.414 76.1248 325.985 91.241C324.57 106.206 311.411 117.231 296.48 116.063L296.027 116.024L268.867 113.456L262.675 178.959C260.348 203.578 200.839 176.364 183.288 191.101C165.396 206.125 189.245 262.84 164.149 260.468L98.6459 254.276L96.0785 281.436C94.6496 296.552 81.2371 307.648 66.1209 306.219C51.0048 304.79 39.909 291.378 41.3379 276.262Z" stroke="#595a9b"/>
<path fill-rule="evenodd" clip-rule="evenodd" d="M54.0705 293.355C53.5936 278.179 65.5096 265.49 80.6857 265.013L107.954 264.156L105.887 198.394C105.157 175.158 162.742 200.421 176.648 183.957C192.613 165.056 166.744 106.018 193.421 105.18L259.183 103.113L258.326 75.8449C257.854 60.8206 269.528 48.2335 284.487 47.5205L284.942 47.5026C300.118 47.0257 312.807 58.9417 313.284 74.1178C313.756 89.1421 302.082 101.729 287.123 102.442L286.669 102.46L259.401 103.317L261.467 169.079C262.244 193.796 199.793 174.254 184.228 191.075C168.36 208.223 199.129 261.502 173.933 262.293L108.171 264.36L109.028 291.628C109.505 306.804 97.5889 319.493 82.4128 319.97C67.2367 320.447 54.5475 308.531 54.0705 293.355Z" stroke="#595a9b"/>
<path fill-rule="evenodd" clip-rule="evenodd" d="M68.8455 308.718C66.4702 293.721 76.7019 279.639 91.6985 277.263L118.644 272.995L108.352 208.011C104.715 185.05 165.012 202.896 176.745 184.82C190.215 164.066 157.151 108.736 183.512 104.561L248.497 94.2689L244.229 67.3227C241.878 52.476 251.882 38.5251 266.634 35.9429L267.082 35.8682C282.079 33.4929 296.162 43.7246 298.537 58.7212C300.888 73.5679 290.884 87.5188 276.132 90.101L275.684 90.1758L248.738 94.4434L259.031 159.428C262.899 183.852 198.492 172.292 185.157 190.932C171.564 209.932 208.768 258.935 183.87 262.878L118.885 273.171L123.153 300.117C125.528 315.113 115.297 329.196 100.3 331.571C85.3034 333.946 71.2207 323.715 68.8455 308.718Z" stroke="#595a9b"/>
<path fill-rule="evenodd" clip-rule="evenodd" d="M85.4292 322.108C81.1931 307.527 89.5791 292.273 104.16 288.037L130.358 280.426L112.002 217.244C105.516 194.92 167.575 205.068 176.949 185.663C187.712 163.385 147.974 112.635 173.604 105.189L236.787 86.8335L229.175 60.6347C224.982 46.1999 233.159 31.1051 247.47 26.6943L247.906 26.564C262.487 22.3279 277.741 30.7139 281.977 45.2945C286.17 59.7294 277.993 74.8242 263.682 79.2349L263.246 79.3653L237.048 86.9764L255.404 150.159C262.303 173.906 196.955 170.509 186.061 190.673C174.957 211.227 218.009 255.18 193.802 262.213L130.619 280.57L138.23 306.768C142.467 321.348 134.081 336.602 119.5 340.839C104.919 345.075 89.6653 336.689 85.4292 322.108Z" stroke="#595a9b"/>
<path fill-rule="evenodd" clip-rule="evenodd" d="M103.559 333.314C97.5292 319.379 103.937 303.194 117.872 297.164L142.91 286.329L116.779 225.946C107.547 204.611 170.388 206.901 177.257 186.475C185.142 163.023 139.357 117.654 163.852 107.054L224.236 80.9244L213.401 55.8862C207.431 42.0908 213.652 26.0901 227.298 19.9205L227.713 19.7366C241.648 13.7064 257.833 20.1144 263.863 34.0492C269.833 47.8447 263.612 63.8453 249.966 70.0149L249.55 70.1989L224.512 81.0335L250.643 141.417C260.464 164.112 195.205 168.933 186.925 190.302C178.484 212.087 226.705 250.297 203.57 260.309L143.187 286.439L154.022 311.477C160.052 325.412 153.644 341.596 139.709 347.627C125.774 353.657 109.589 347.249 103.559 333.314Z" stroke="#595a9b"/>
<path fill-rule="evenodd" clip-rule="evenodd" d="M122.953 342.159C115.224 329.09 119.553 312.23 132.622 304.5L156.104 290.613L122.612 233.981C110.778 213.971 173.411 208.367 177.665 187.241C182.55 162.986 131.439 123.713 154.412 110.127L211.045 76.6349L197.157 53.1521C189.505 40.2137 193.672 23.5595 206.437 15.7282L206.826 15.4936C219.895 7.76457 236.756 12.0936 244.485 25.1627C252.136 38.1011 247.97 54.7553 235.205 62.5865L234.816 62.8211L211.333 76.7084L244.825 133.341C257.413 154.626 193.273 167.588 187.737 189.827C182.093 212.497 234.723 244.363 213.025 257.195L156.393 290.687L170.28 314.169C178.009 327.239 173.68 344.099 160.611 351.828C147.542 359.557 130.682 355.228 122.953 342.159Z" stroke="#595a9b"/>
<path fill-rule="evenodd" clip-rule="evenodd" d="M143.3 348.504C133.994 336.506 136.176 319.237 148.173 309.93L169.73 293.209L129.404 241.221C115.156 222.852 176.592 209.443 178.165 187.95C179.971 163.274 124.341 130.717 145.43 114.358L197.419 74.0327L180.697 52.4756C171.484 40.5982 173.53 23.5532 185.213 14.1838L185.57 13.9023C197.568 4.59614 214.838 6.77783 224.144 18.7752C233.357 30.6526 231.311 47.6976 219.628 57.067L219.271 57.3486L197.714 74.0695L238.04 126.058C253.196 145.597 191.187 166.496 188.481 189.253C185.723 212.452 241.932 237.47 222.014 252.921L170.026 293.247L186.747 314.803C196.053 326.801 193.871 344.071 181.874 353.377C169.876 362.683 152.606 360.501 143.3 348.504Z" stroke="#595a9b"/>
<path fill-rule="evenodd" clip-rule="evenodd" d="M164.284 352.248C153.548 341.512 153.548 324.105 164.284 313.368L183.575 294.077L137.051 247.553C120.613 231.115 179.885 210.111 178.751 188.591C177.45 163.883 118.179 138.555 137.051 119.682L183.576 73.1585L164.284 53.8672C153.655 43.2382 153.549 26.0711 163.965 15.3113L164.284 14.9873C175.021 4.25089 192.428 4.25089 203.164 14.9873C213.793 25.6163 213.9 42.7834 203.483 53.5432L203.164 53.8672L183.873 73.1581L230.397 119.682C247.883 137.168 188.981 165.673 189.149 188.591C189.321 211.953 248.222 229.728 230.397 247.553L183.874 294.078L203.164 313.368C213.901 324.105 213.901 341.512 203.164 352.248C192.428 362.985 175.021 362.985 164.284 352.248Z" stroke="#595a9b"/>
<path fill-rule="evenodd" clip-rule="evenodd" d="M185.571 353.333C173.574 344.027 171.392 326.757 180.698 314.76L197.419 293.203L145.431 252.877C127.063 238.629 183.234 210.362 179.413 189.153C175.025 164.804 113.047 147.103 129.405 126.014L169.731 74.0266L148.174 57.3052C136.297 48.0922 134.04 31.0738 143.026 19.0933L143.301 18.7318C152.608 6.73448 169.877 4.55279 181.875 13.8589C193.752 23.072 196.009 40.0903 187.023 52.0708L186.748 52.4323L170.027 73.9888L222.015 114.315C241.554 129.471 186.69 165.134 189.729 187.85C192.827 211.006 253.492 221.259 238.041 241.178L197.716 293.166L219.272 309.887C231.269 319.193 233.451 336.463 224.145 348.46C214.839 360.458 197.569 362.64 185.571 353.333Z" stroke="#595a9b"/>
<path fill-rule="evenodd" clip-rule="evenodd" d="M206.825 351.742C193.756 344.013 189.427 327.153 197.156 314.083L211.043 290.601L154.411 257.109C134.402 245.275 186.587 210.191 180.138 189.628C172.733 166.02 109.025 156.228 122.611 133.255L156.104 76.6227L132.621 62.735C119.682 55.0832 115.31 38.482 122.724 25.4697L122.952 25.0766C130.681 12.0074 147.541 7.67844 160.61 15.4075C173.549 23.0593 177.921 39.6605 170.508 52.6728L170.279 53.066L156.392 76.5483L213.024 110.041C234.309 122.629 184.347 164.887 190.209 187.042C196.185 209.628 257.657 212.197 244.824 233.894L211.333 290.527L234.815 304.414C247.884 312.143 252.213 329.004 244.484 342.073C236.755 355.142 219.894 359.471 206.825 351.742Z" stroke="#595a9b"/>
<path fill-rule="evenodd" clip-rule="evenodd" d="M227.713 347.499C213.779 341.469 207.371 325.284 213.401 311.349L224.235 286.311L163.852 260.181C142.517 250.949 189.894 209.601 180.918 190.008C170.613 167.515 106.18 165.784 116.779 141.29L142.91 80.9063L117.872 70.0713C104.076 64.1015 97.6581 48.1791 103.382 34.3403L103.559 33.9217C109.589 19.9869 125.774 13.5789 139.709 19.609C153.504 25.5788 159.923 41.5012 154.199 55.3399L154.022 55.7587L143.187 80.7964L203.57 106.927C226.265 116.748 181.993 164.934 190.586 186.181C199.345 207.839 260.654 202.683 250.643 225.818L224.513 286.202L249.55 297.037C263.485 303.067 269.893 319.252 263.863 333.186C257.833 347.121 241.648 353.529 227.713 347.499Z" stroke="#595a9b"/>
<path fill-rule="evenodd" clip-rule="evenodd" d="M247.905 340.672C233.324 336.435 224.938 321.181 229.174 306.601L236.785 280.402L173.603 262.046C151.279 255.561 193.1 208.601 181.74 190.288C168.696 169.263 104.554 175.622 112.001 149.992L130.357 86.8097L104.158 79.1983C89.7236 75.0045 81.3602 60.0121 85.3046 45.5651L85.4279 45.1275C89.664 30.5468 104.918 22.1609 119.499 26.3969C133.934 30.5907 142.297 45.583 138.353 60.0301L138.229 60.4677L130.618 86.666L193.8 105.022C217.547 111.921 179.664 165.277 190.851 185.279C202.256 205.668 262.435 192.869 255.403 217.076L237.047 280.259L263.245 287.87C277.825 292.106 286.211 307.36 281.975 321.941C277.739 336.522 262.485 344.908 247.905 340.672Z" stroke="#595a9b"/>
<path fill-rule="evenodd" clip-rule="evenodd" d="M267.083 331.367C252.086 328.992 241.854 314.909 244.229 299.913L248.497 272.967L183.512 262.674C160.552 259.038 196.157 207.206 182.591 190.462C167.016 171.238 104.177 185.586 108.352 159.225L118.645 94.2398L91.6986 89.9719C76.8519 87.6205 66.6754 73.7945 68.778 58.967L68.8455 58.5174C71.2208 43.5208 85.3034 33.2891 100.3 35.6643C115.147 38.0158 125.323 51.8418 123.221 66.6693L123.153 67.1189L118.885 94.0646L183.87 104.357C208.294 108.226 177.397 165.908 191.003 184.35C204.874 203.15 262.974 182.909 259.031 207.807L248.739 272.792L275.684 277.06C290.681 279.435 300.912 293.518 298.537 308.514C296.162 323.511 282.079 333.742 267.083 331.367Z" stroke="#595a9b"/>
<path fill-rule="evenodd" clip-rule="evenodd" d="M284.942 319.733C269.766 319.256 257.85 306.567 258.327 291.391L259.183 264.123L193.421 262.056C170.186 261.326 199.014 205.441 183.456 190.529C165.594 173.408 105.049 195.518 105.887 168.842L107.954 103.08L80.6858 102.223C65.6615 101.75 53.8324 89.309 54.0601 74.3349L54.0707 73.8804C54.5476 58.7043 67.2369 46.7883 82.4129 47.2652C97.4373 47.7374 109.266 60.1788 109.039 75.1529L109.028 75.6075L108.171 102.876L173.934 104.942C198.65 105.719 175.226 166.819 191.036 183.411C207.153 200.323 262.259 172.96 261.467 198.156L259.401 263.919L286.669 264.776C301.845 265.253 313.761 277.942 313.284 293.118C312.807 308.294 300.118 320.21 284.942 319.733Z" stroke="#595a9b"/>
<path fill-rule="evenodd" clip-rule="evenodd" d="M301.202 305.952C286.085 307.381 272.673 296.285 271.244 281.169L268.676 254.008L203.174 260.2C180.03 262.388 201.627 203.33 184.323 190.486C164.456 175.739 107.159 205.263 104.647 178.692L98.456 113.189L71.2951 115.757C56.3301 117.171 43.0349 106.311 41.384 91.426L41.3376 90.9737C39.9087 75.8576 51.0044 62.4451 66.1206 61.0162C81.0856 59.6016 94.3808 70.4624 96.0316 85.347L96.0781 85.7992L98.6453 112.96L164.148 106.768C188.767 104.441 173.186 167.995 190.951 182.474C209.061 197.233 260.302 163.18 262.675 188.276L268.867 253.779L296.027 251.211C311.143 249.783 324.556 260.878 325.985 275.994C327.413 291.111 316.318 304.523 301.202 305.952Z" stroke="#595a9b"/>
<path fill-rule="evenodd" clip-rule="evenodd" d="M315.606 290.242C300.788 293.554 286.091 284.227 282.778 269.409L276.827 242.784L212.617 257.137C189.93 262.208 203.955 200.909 185.177 190.335C163.619 178.194 110.474 214.667 104.652 188.62L90.2994 124.41L63.6744 130.361C49.0047 133.64 34.4531 124.531 30.9498 109.971L30.847 109.528C27.5348 94.7104 36.862 80.0131 51.6799 76.7009C66.3497 73.4218 80.9012 82.5306 84.4046 97.0909L84.5074 97.5338L90.4585 124.158L154.669 109.806C178.802 104.411 171.309 169.418 190.749 181.555C210.565 193.929 257.135 153.721 262.634 178.322L276.987 242.533L303.611 236.581C318.429 233.269 333.127 242.596 336.439 257.414C339.751 272.232 330.424 286.93 315.606 290.242Z" stroke="#595a9b"/>
<path fill-rule="evenodd" clip-rule="evenodd" d="M327.929 272.85C313.643 277.993 297.893 270.582 292.749 256.296L283.508 230.627L221.603 252.914C199.73 260.789 205.962 198.216 186.007 190.078C163.097 180.735 114.943 223.581 105.902 198.469L83.615 136.564L57.9458 145.806C43.8027 150.897 28.2243 143.684 22.9236 129.678L22.7662 129.251C17.6229 114.965 25.0345 99.2149 39.3205 94.0716C53.4635 88.9798 69.042 96.193 74.3426 110.199L74.5001 110.626L83.7412 136.295L145.647 114.007C168.913 105.631 169.627 171.064 190.434 180.669C211.646 190.461 252.809 144.734 261.348 168.452L283.635 230.357L309.304 221.116C323.59 215.973 339.34 223.384 344.483 237.67C349.627 251.956 342.215 267.707 327.929 272.85Z" stroke="#595a9b"/>
<path fill-rule="evenodd" clip-rule="evenodd" d="M337.973 254.051C324.445 260.944 307.889 255.565 300.996 242.036L288.61 217.728L229.987 247.598C209.274 258.152 207.614 195.292 186.796 189.719C162.896 183.321 120.491 231.865 108.374 208.084L78.5045 149.46L54.196 161.846C40.8027 168.67 24.443 163.467 17.4287 150.235L17.219 149.832C10.3258 136.303 15.7049 119.748 29.2336 112.855C42.6269 106.03 58.9866 111.234 66.0009 124.466L66.2106 124.869L78.596 149.177L137.22 119.307C159.253 108.08 168.162 172.908 190.009 179.83C212.281 186.886 247.388 136.361 258.832 158.821L288.703 217.445L313.011 205.059C326.539 198.166 343.095 203.545 349.988 217.074C356.881 230.603 351.502 247.158 337.973 254.051Z" stroke="#595a9b"/>
<path fill-rule="evenodd" clip-rule="evenodd" d="M345.584 234.141C333.026 242.676 315.927 239.414 307.393 226.856L292.058 204.292L237.641 241.274C218.414 254.341 208.888 192.183 187.536 189.264C163.023 185.912 127.036 239.388 112.035 217.313L75.0528 162.895L52.4883 178.23C40.0559 186.679 23.173 183.567 14.5556 171.319L14.2971 170.945C5.76264 158.387 9.02441 141.288 21.5824 132.753C34.0149 124.304 50.8978 127.417 59.5151 139.665L59.7737 140.039L75.1081 162.603L129.526 125.621C149.978 111.721 166.942 174.921 189.485 179.05C212.465 183.259 240.963 128.732 255.132 149.581L292.115 203.999L314.678 188.664C327.236 180.13 344.335 183.392 352.87 195.95C361.404 208.508 358.142 225.607 345.584 234.141Z" stroke="#595a9b"/>
<path fill-rule="evenodd" clip-rule="evenodd" d="M350.639 213.435C339.25 223.476 321.877 222.383 311.836 210.993L293.794 190.529L244.441 234.04C227.003 249.414 209.762 188.94 188.213 188.72C163.472 188.467 134.472 246.031 116.822 226.011L73.3113 176.657L52.8468 194.699C41.5713 204.64 24.4314 203.668 14.3469 192.596L14.0435 192.258C4.00246 180.869 5.09546 163.496 16.4848 153.455C27.7603 143.514 44.9001 144.486 54.9846 155.557L55.2881 155.896L73.3295 176.36L122.683 132.849C141.232 116.496 165.983 177.071 188.866 178.343C212.192 179.639 233.631 121.969 250.302 140.878L293.813 190.232L314.277 172.19C325.666 162.149 343.039 163.242 353.08 174.631C363.121 186.021 362.028 203.394 350.639 213.435Z" stroke="#595a9b"/>
<path fill-rule="evenodd" clip-rule="evenodd" d="M353.057 192.258C343.016 203.647 325.643 204.74 314.254 194.699L293.79 176.658L250.279 226.011C234.905 243.449 210.221 185.613 188.814 188.096C164.237 190.945 142.68 251.69 122.66 234.04L73.307 190.529L55.265 210.993C45.3244 222.269 28.1979 223.453 16.8053 213.732L16.4618 213.435C5.07245 203.394 3.97945 186.021 14.0205 174.631C23.9612 163.356 41.0877 162.172 52.4803 171.892L52.8237 172.19L73.2878 190.232L116.799 140.878C133.152 122.329 165.3 179.325 188.161 177.718C211.466 176.08 225.509 116.179 244.418 132.849L293.771 176.36L311.813 155.896C321.854 144.507 339.227 143.414 350.616 153.455C362.005 163.496 363.098 180.868 353.057 192.258Z" stroke="#595a9b"/>
<path fill-rule="evenodd" clip-rule="evenodd" d="M352.805 170.945C344.271 183.503 327.172 186.765 314.614 178.23L292.049 162.896L255.067 217.313C242.001 236.54 210.262 182.255 189.335 187.4C165.309 193.308 151.536 256.276 129.461 241.274L75.0439 204.291L59.7091 226.856C51.26 239.288 34.417 242.609 21.8959 234.394L21.5178 234.141C8.95981 225.607 5.69803 208.508 14.2325 195.95C22.6815 183.517 39.5246 180.196 52.0456 188.412L52.4237 188.665L74.9877 203.999L111.97 149.581C125.87 129.129 164.907 181.646 187.387 177.187C210.303 172.641 216.727 111.452 237.576 125.621L291.994 162.603L307.328 140.039C315.863 127.481 332.962 124.219 345.52 132.754C358.078 141.288 361.339 158.387 352.805 170.945Z" stroke="#595a9b"/>
<path fill-rule="evenodd" clip-rule="evenodd" d="M349.881 149.832C342.988 163.36 326.433 168.739 312.904 161.846L288.596 149.461L258.726 208.084C248.172 228.797 209.88 178.918 189.763 186.646C166.667 195.518 160.894 259.715 137.113 247.599L78.4899 217.728L66.1041 242.036C59.2798 255.43 42.9858 260.836 29.5338 254.254L29.1271 254.051C15.5984 247.158 10.2193 230.603 17.1125 217.074C23.9368 203.681 40.2307 198.275 53.6828 204.856L54.0895 205.059L78.3975 217.445L108.268 158.821C119.494 136.788 164.806 183.998 186.55 176.756C208.716 169.374 207.42 107.863 229.88 119.307L288.504 149.177L300.89 124.869C307.783 111.34 324.338 105.961 337.867 112.855C351.395 119.748 356.774 136.303 349.881 149.832Z" stroke="#595a9b"/>
<path fill-rule="evenodd" clip-rule="evenodd" d="M344.335 129.251C339.191 143.537 323.441 150.949 309.155 145.805L283.486 136.564L261.199 198.469C253.324 220.342 209.083 175.655 190.093 185.843C168.291 197.54 170.61 261.955 145.498 252.914L83.5928 230.626L74.3514 256.296C69.2595 270.439 53.7716 277.844 39.6007 273L39.1717 272.85C24.8858 267.707 17.4742 251.956 22.6174 237.67C27.7093 223.527 43.1972 216.122 57.3681 220.965L57.7971 221.116L83.4657 230.357L105.753 168.452C114.13 145.186 165.001 186.344 185.666 176.435C206.731 166.333 197.736 105.468 221.454 114.007L283.359 136.294L292.601 110.626C297.744 96.3399 313.494 88.9283 327.78 94.0715C342.066 99.2148 349.478 114.965 344.335 129.251Z" stroke="#595a9b"/>
<path fill-rule="evenodd" clip-rule="evenodd" d="M336.254 109.528C332.941 124.346 318.244 133.674 303.426 130.361L276.802 124.41L262.449 188.62C257.378 211.307 207.884 172.517 190.321 185.006C170.157 199.343 180.531 262.959 154.484 257.137L90.2736 242.784L84.3222 269.409C81.0431 284.079 66.6055 293.367 51.9392 290.337L51.4948 290.242C36.6769 286.93 27.3497 272.232 30.6619 257.414C33.9409 242.745 48.3786 233.456 63.0448 236.486L63.4893 236.582L90.1138 242.533L104.467 178.323C109.861 154.19 165.49 188.648 184.75 176.226C204.383 163.564 187.831 104.307 212.432 109.806L276.642 124.158L282.593 97.5339C285.905 82.716 300.603 73.3888 315.421 76.701C330.239 80.0132 339.566 94.7105 336.254 109.528Z" stroke="#595a9b"/>
<path fill-rule="evenodd" clip-rule="evenodd" d="M325.764 90.9738C324.335 106.09 310.923 117.186 295.807 115.757L268.646 113.19L262.454 178.692C260.266 201.836 206.302 169.555 190.442 184.146C172.234 200.898 190.499 262.712 163.928 260.2L98.425 254.008L95.8576 281.169C94.443 296.134 81.2833 307.159 66.353 305.991L65.9001 305.952C50.7839 304.523 39.6882 291.111 41.1171 275.994C42.5317 261.029 55.6914 250.005 70.6216 251.172L71.0746 251.211L98.2351 253.779L104.427 188.276C106.754 163.657 166.263 190.872 183.814 176.134C201.706 161.111 177.857 104.396 202.953 106.768L268.456 112.959L271.024 85.7993C272.452 70.6831 285.865 59.5873 300.981 61.0162C316.097 62.4451 327.193 75.8576 325.764 90.9738Z" stroke="#595a9b"/>
<path fill-rule="evenodd" clip-rule="evenodd" d="M313.03 73.8802C313.507 89.0563 301.591 101.746 286.415 102.222L259.147 103.08L261.213 168.842C261.944 192.077 204.359 166.815 190.453 183.278C174.488 202.18 200.356 261.217 173.68 262.056L107.917 264.122L108.774 291.391C109.246 306.415 97.5722 319.002 82.6133 319.715L82.159 319.733C66.983 320.21 54.2937 308.294 53.8168 293.118C53.3446 278.093 65.0188 265.506 79.9776 264.793L80.4319 264.775L107.7 263.919L105.633 198.156C104.857 173.44 167.307 192.981 182.873 176.16C198.74 159.013 167.971 105.734 193.167 104.942L258.93 102.875L258.073 75.6073C257.596 60.4313 269.512 47.742 284.688 47.2651C299.864 46.7881 312.553 58.7042 313.03 73.8802Z" stroke="#595a9b"/>
<path fill-rule="evenodd" clip-rule="evenodd" d="M298.256 58.5174C300.631 73.514 290.4 87.5967 275.403 89.9719L248.457 94.2399L258.75 159.224C262.387 182.185 202.089 164.339 190.357 182.416C176.887 203.169 209.95 258.499 183.589 262.674L118.604 272.966L122.872 299.913C125.224 314.759 115.219 328.71 100.468 331.292L100.019 331.367C85.0225 333.742 70.9398 323.511 68.5646 308.514C66.2131 293.667 76.2176 279.717 90.9692 277.134L91.4176 277.06L118.363 272.792L108.071 207.807C104.202 183.383 168.61 194.943 181.944 176.304C195.538 157.303 158.334 108.301 183.231 104.357L248.216 94.0641L243.949 67.1188C241.573 52.1222 251.805 38.0395 266.802 35.6643C281.798 33.2891 295.881 43.5207 298.256 58.5174Z" stroke="#595a9b"/>
<path fill-rule="evenodd" clip-rule="evenodd" d="M281.673 45.1275C285.909 59.7082 277.523 74.9622 262.942 79.1982L236.744 86.8097L255.1 149.992C261.586 172.316 199.527 162.168 190.153 181.572C179.39 203.85 219.128 254.6 193.498 262.046L130.315 280.402L137.927 306.601C142.12 321.036 133.943 336.13 119.632 340.541L119.196 340.671C104.615 344.908 89.3615 336.522 85.1254 321.941C80.9317 307.506 89.1088 292.411 103.42 288.001L103.856 287.87L130.054 280.259L111.698 217.076C104.799 193.33 170.148 196.726 181.041 176.563C192.145 156.008 149.093 112.055 173.301 105.022L236.483 86.6656L228.872 60.4677C224.635 45.887 233.021 30.633 247.602 26.3969C262.183 22.1608 277.437 30.5468 281.673 45.1275Z" stroke="#595a9b"/>
<path fill-rule="evenodd" clip-rule="evenodd" d="M263.541 33.9216C269.571 47.8564 263.163 64.0412 249.228 70.0713L224.19 80.9063L250.321 141.29C259.553 162.625 196.712 160.334 189.843 180.761C181.958 204.212 227.743 249.581 203.248 260.181L142.864 286.311L153.699 311.349C159.669 325.145 153.448 341.145 139.803 347.315L139.387 347.499C125.452 353.529 109.267 347.121 103.237 333.186C97.2673 319.391 103.488 303.39 117.134 297.221L117.55 297.037L142.588 286.202L116.457 225.818C106.636 203.123 171.895 198.303 180.176 176.933C188.616 155.149 140.395 116.938 163.53 106.927L223.913 80.796L213.078 55.7586C207.048 41.8238 213.456 25.6391 227.391 19.609C241.326 13.5788 257.511 19.9868 263.541 33.9216Z" stroke="#595a9b"/>
<path fill-rule="evenodd" clip-rule="evenodd" d="M244.149 25.0764C251.878 38.1456 247.549 55.0058 234.48 62.7349L210.997 76.6225L244.49 133.255C256.323 153.264 193.691 158.868 189.436 179.995C184.552 204.249 235.662 243.522 212.689 257.109L156.057 290.6L169.944 314.083C177.596 327.022 173.43 343.676 160.665 351.507L160.275 351.742C147.206 359.471 130.346 355.142 122.617 342.073C114.965 329.134 119.131 312.48 131.896 304.649L132.286 304.414L155.768 290.527L122.276 233.894C109.688 212.609 173.828 199.648 179.365 177.409C185.009 154.738 132.379 122.873 154.076 110.041L210.708 76.5479L196.821 53.0659C189.092 39.9967 193.421 23.1365 206.49 15.4074C219.559 7.67833 236.42 12.0073 244.149 25.0764Z" stroke="#595a9b"/>
<path fill-rule="evenodd" clip-rule="evenodd" d="M223.8 18.7317C233.106 30.729 230.924 47.9989 218.927 57.305L197.37 74.0263L237.696 126.014C251.945 144.383 190.508 157.793 188.935 179.285C187.129 203.961 242.759 236.519 221.67 252.877L169.681 293.203L186.403 314.76C195.616 326.637 193.57 343.682 181.887 353.052L181.53 353.333C169.532 362.639 152.263 360.458 142.956 348.46C133.743 336.583 135.789 319.538 147.472 310.168L147.829 309.887L169.386 293.166L129.06 241.178C113.904 221.638 175.913 200.74 178.619 177.982C181.377 154.783 125.168 129.765 145.086 114.315L197.074 73.9884L180.353 52.4321C171.047 40.4347 173.229 23.1648 185.226 13.8587C197.224 4.55261 214.494 6.7343 223.8 18.7317Z" stroke="#595a9b"/>
<path fill-rule="evenodd" clip-rule="evenodd" d="M202.817 14.9874C213.554 25.7238 213.554 43.1309 202.817 53.8673L183.526 73.1585L230.05 119.682C246.488 136.12 187.217 157.124 188.35 178.645C189.651 203.352 248.923 228.681 230.05 247.553L206.788 270.815L183.526 294.077L202.817 313.368C213.446 323.997 213.553 341.164 203.136 351.924L202.817 352.248C192.081 362.985 174.674 362.985 163.937 352.248C153.308 341.619 153.202 324.452 163.618 313.692L163.937 313.368L183.228 294.077L136.704 247.553C119.219 230.068 178.12 201.562 177.952 178.645C177.781 155.283 118.879 137.507 136.704 119.682L183.228 73.158L163.937 53.8673C153.201 43.1309 153.201 25.7238 163.937 14.9874C174.674 4.25096 192.081 4.25096 202.817 14.9874Z" stroke="#595a9b"/>
</svg>
